<?xml version="1.0" standalone="no"?>
<!DOCTYPE svg PUBLIC "-//W3C//DTD SVG 20010904//EN"
 "http://www.w3.org/TR/2001/REC-SVG-20010904/DTD/svg10.dtd">
<svg version="1.0" xmlns="http://www.w3.org/2000/svg"
 width="1563.000000pt" height="1563.000000pt" viewBox="0 0 1563.000000 1563.000000"
 preserveAspectRatio="xMidYMid meet">

<g transform="translate(0.000000,1563.000000) scale(0.100000,-0.100000)"
fill="#000000" stroke="none">
<path d="M3225 9814 c-16 -2 -66 -9 -110 -15 -375 -50 -755 -242 -1039 -525
-276 -277 -448 -608 -522 -1006 -25 -131 -29 -419 -10 -561 101 -717 582
-1300 1261 -1526 234 -78 440 -103 720 -90 524 26 1045 311 1364 744 83 112
94 129 152 238 l46 89 -22 71 c-40 127 -45 218 -45 895 l0 642 25 0 c14 0 25
3 25 7 0 11 -72 137 -123 213 -73 110 -152 203 -263 311 -271 262 -600 429
-979 495 -78 14 -420 27 -480 18z m732 -1387 l673 -772 0 -448 0 -447 -562 2
-562 3 -672 785 -672 785 -1 433 -1 432 563 -1 562 0 672 -772z m583 136 c0
-419 -2 -495 -14 -483 -7 8 -200 232 -429 498 l-417 482 430 0 430 0 0 -497z
m-1826 -1196 c224 -263 409 -484 413 -492 4 -13 -51 -15 -411 -15 l-416 0 0
497 c0 273 1 494 3 492 2 -2 187 -219 411 -482z"/>
</g>
</svg>
