<?xml version="1.0" standalone="no"?>
<!DOCTYPE svg PUBLIC "-//W3C//DTD SVG 20010904//EN"
 "http://www.w3.org/TR/2001/REC-SVG-20010904/DTD/svg10.dtd">
<svg version="1.0" xmlns="http://www.w3.org/2000/svg"
 width="1563.000000pt" height="1563.000000pt" viewBox="0 0 1563.000000 1563.000000"
 preserveAspectRatio="xMidYMid meet">

<g transform="translate(0.000000,1563.000000) scale(0.100000,-0.100000)"
fill="#000000" stroke="none">
<path d="M7555 15334 c-846 -31 -1703 -209 -2465 -511 -1007 -401 -1879 -981
-2635 -1754 -1157 -1183 -1892 -2720 -2094 -4384 -70 -569 -70 -1262 0 -1830
108 -891 351 -1698 749 -2496 667 -1336 1708 -2435 3020 -3188 167 -96 587
-303 780 -385 742 -312 1532 -503 2350 -568 203 -16 910 -15 1110 1 828 66
1607 254 2350 567 193 82 613 289 780 385 1317 756 2353 1852 3025 3198 447
895 705 1841 780 2856 20 265 20 827 0 1090 -161 2144 -1179 4077 -2845 5401
-830 660 -1819 1148 -2845 1403 -388 96 -832 167 -1215 195 -210 16 -667 26
-845 20z m815 -400 c1149 -85 2290 -464 3275 -1087 999 -633 1849 -1524 2417
-2537 529 -943 829 -1936 913 -3020 20 -257 20 -792 0 -1050 -123 -1574 -721
-3007 -1754 -4200 -162 -188 -516 -541 -701 -700 -835 -720 -1757 -1213 -2822
-1509 -384 -107 -895 -195 -1353 -233 -196 -16 -864 -16 -1060 0 -1585 132
-2986 716 -4175 1742 -189 162 -542 515 -706 705 -1031 1195 -1627 2622 -1749
4195 -20 257 -20 791 0 1055 99 1307 542 2546 1293 3615 463 659 1057 1254
1722 1726 961 680 2067 1112 3240 1263 451 59 975 71 1460 35z"/>
<path d="M3060 10918 l0 -1653 2602 -3042 2601 -3043 2153 0 2154 0 0 1719 0
1719 -2341 2683 c-1287 1476 -2358 2701 -2379 2721 -21 20 -40 41 -41 46 -2 6
-100 121 -218 256 l-214 246 -2158 0 -2159 0 0 -1652z"/>
<path d="M8912 12033 c263 -308 3321 -3843 3324 -3843 2 0 4 869 4 1930 l0
1930 -1672 0 c-1591 0 -1670 -1 -1656 -17z"/>
<path d="M3590 5490 l0 -1910 1632 0 1631 0 -20 23 c-11 12 -731 855 -1598
1872 -868 1018 -1593 1867 -1612 1888 l-33 37 0 -1910z"/>
</g>
</svg>
