<?xml version="1.0" standalone="no"?>
<!DOCTYPE svg PUBLIC "-//W3C//DTD SVG 20010904//EN"
 "http://www.w3.org/TR/2001/REC-SVG-20010904/DTD/svg10.dtd">
<svg version="1.0" xmlns="http://www.w3.org/2000/svg"
 width="1563.000000pt" height="1563.000000pt" viewBox="0 0 1563.000000 1563.000000"
 preserveAspectRatio="xMidYMid meet">

<g transform="translate(0.000000,1563.000000) scale(0.100000,-0.100000)"
fill="#000000" stroke="none">
<path d="M7570 14949 c-1787 -47 -3539 -808 -4830 -2099 -1050 -1050 -1744
-2393 -1999 -3865 -116 -670 -134 -1405 -51 -2090 194 -1594 915 -3071 2055
-4210 812 -812 1767 -1399 2855 -1753 536 -175 1109 -287 1700 -334 200 -15
830 -15 1030 0 1202 95 2300 456 3305 1086 786 492 1492 1162 2041 1936 680
959 1120 2100 1263 3275 69 563 69 1185 0 1750 -194 1588 -918 3074 -2049
4205 -1200 1199 -2761 1927 -4460 2081 -186 17 -583 25 -860 18z m21 -2624
c118 -135 216 -250 217 -256 2 -5 23 -29 47 -52 24 -23 1094 -1247 2379 -2720
l2336 -2679 0 -1719 0 -1719 -2154 0 -2154 0 -2601 3043 -2601 3042 0 1653 0
1652 2158 0 2159 0 214 -245z m4649 -2210 l0 -1936 -1657 1918 c-912 1056
-1664 1926 -1672 1936 -13 16 82 17 1658 17 l1671 0 0 -1935z m-7030 -4610
c881 -1034 1612 -1890 1623 -1902 l20 -23 -1631 0 -1632 0 0 1912 c0 1052 4
1908 8 1903 5 -6 730 -856 1612 -1890z"/>
</g>
</svg>
